<?xml version="1.0" standalone="no"?>
<!DOCTYPE svg PUBLIC "-//W3C//DTD SVG 20010904//EN"
 "http://www.w3.org/TR/2001/REC-SVG-20010904/DTD/svg10.dtd">
<svg version="1.0" xmlns="http://www.w3.org/2000/svg"
 width="1200.000000pt" height="1200.000000pt" viewBox="0 0 1200.000000 1200.000000"
 preserveAspectRatio="xMidYMid meet">
<metadata>
Created by potrace 1.14, written by Peter Selinger 2001-2017
</metadata>
<g transform="translate(0.000000,1200.000000) scale(0.100000,-0.100000)"
fill="#000000" stroke="none">
<path d="M0 6000 l0 -6000 6000 0 6000 0 0 6000 0 6000 -6000 0 -6000 0 0
-6000z m4955 1979 c34 -9 126 -97 635 -604 327 -326 620 -610 651 -633 244
-176 549 -199 829 -61 l105 52 445 443 445 444 -440 -1 -439 0 -105 -102 c-57
-56 -96 -90 -86 -75 16 27 16 28 -1 35 -21 7 -84 70 -84 83 0 5 -8 11 -19 15
-10 3 -40 26 -66 50 -26 25 -51 45 -56 45 -5 0 -9 7 -9 17 0 14 -3 14 -22 -3
-13 -10 33 40 102 111 140 147 169 171 220 185 21 6 315 10 760 10 680 0 728
-2 765 -19 58 -26 102 -81 111 -137 15 -101 37 -74 -614 -727 -328 -329 -630
-623 -670 -653 -407 -309 -996 -312 -1408 -7 -46 35 -310 288 -634 611 l-555
551 -435 1 -435 0 757 -757 c422 -423 762 -770 767 -786 16 -42 13 -123 -5
-160 -9 -18 -354 -371 -767 -784 l-752 -753 435 0 435 0 555 553 c305 305 582
574 615 599 184 138 377 212 614 238 125 14 262 2 409 -35 117 -30 309 -122
402 -194 36 -27 338 -323 672 -658 572 -574 607 -610 613 -651 10 -62 -2 -114
-37 -157 -57 -68 -17 -65 -853 -65 -637 0 -760 2 -783 14 -15 8 -94 83 -177
167 -82 84 -140 145 -128 135 12 -10 29 -16 37 -13 11 4 13 1 9 -11 -6 -14 -5
-15 9 -2 9 8 15 16 13 18 -4 5 45 52 54 52 4 0 13 10 20 23 12 23 89 82 106
82 6 0 14 10 20 23 5 12 14 22 19 22 4 0 0 12 -10 27 -15 23 -9 21 32 -14 27
-23 74 -67 104 -97 l54 -56 441 0 440 0 -420 419 c-425 423 -485 475 -612 532
-113 52 -221 72 -358 66 -145 -6 -207 -22 -345 -88 l-105 -51 -620 -618 c-548
-547 -625 -620 -662 -629 -30 -8 -262 -11 -781 -9 l-738 3 -42 28 c-74 49
-103 148 -67 235 11 26 268 289 866 887 l850 851 -837 829 c-461 457 -850 850
-866 874 -47 74 -34 187 29 243 53 48 41 47 823 48 497 0 748 -4 775 -11z"/>
</g>
</svg>
